<svg width="14" height="17" viewBox="0 0 14 17" fill="none" xmlns="http://www.w3.org/2000/svg">
<path fill-rule="evenodd" clip-rule="evenodd" d="M0.777778 0.139648H3.5C3.92778 0.139648 4.27778 0.548507 4.27778 1.04822C4.27778 2.18394 4.43333 3.27423 4.72111 4.29183C4.80667 4.60983 4.74444 4.96418 4.52667 5.21858L2.81556 7.21744C3.93556 9.78871 5.74 11.8875 7.94111 13.2049L9.65222 11.2061C9.80778 11.0335 10.0022 10.9426 10.2044 10.9426C10.2822 10.9426 10.3678 10.9517 10.4456 10.988C11.3167 11.3242 12.2578 11.5059 13.2222 11.5059C13.65 11.5059 14 11.9148 14 12.4145V15.5854C14 16.0851 13.65 16.494 13.2222 16.494C5.91889 16.494 0 9.57974 0 1.04822C0 0.548507 0.35 0.139648 0.777778 0.139648ZM2.75342 1.95613C2.80008 2.76475 2.91675 3.5552 3.10342 4.3093L2.17008 5.39958C1.85119 4.3093 1.64897 3.15543 1.57897 1.95613H2.75342ZM10.4227 12.8786C11.0838 13.0967 11.7605 13.233 12.4449 13.2875V14.6412C11.4182 14.5594 10.4305 14.3232 9.48935 13.9598L10.4227 12.8786Z" fill="#2B2024"/>
</svg>
