<svg width="13" height="20" viewBox="0 0 13 20" fill="none" xmlns="http://www.w3.org/2000/svg">
<path fill-rule="evenodd" clip-rule="evenodd" d="M6.33908 0.90332C2.83448 0.90332 0 3.77249 0 7.31999C0 12.1325 6.33908 19.2367 6.33908 19.2367C6.33908 19.2367 12.6782 12.1325 12.6782 7.31999C12.6782 3.77249 9.84369 0.90332 6.33908 0.90332ZM1.81072 7.32066C1.81072 4.79065 3.83923 2.7373 6.33864 2.7373C8.83805 2.7373 10.8666 4.79065 10.8666 7.32066C10.8666 9.96068 8.25848 13.9115 6.33864 16.3774C4.45503 13.9299 1.81072 9.93318 1.81072 7.32066ZM4.0749 7.32091C4.0749 6.05529 5.08851 5.0293 6.33886 5.0293C7.1477 5.0293 7.89509 5.46608 8.29951 6.1751C8.70392 6.88413 8.70392 7.75769 8.29951 8.46672C7.89509 9.17575 7.1477 9.61252 6.33886 9.61252C5.08851 9.61252 4.0749 8.58653 4.0749 7.32091Z" fill="#2B2024"/>
</svg>
