<svg width="139" height="57" viewBox="0 0 139 57" fill="none" xmlns="http://www.w3.org/2000/svg">
<path d="M68.0966 45.9477V50.2145H65.8132V38.7168H69.9751C71.3246 38.7168 72.3395 39.0425 73.0196 39.6939C73.7106 40.3454 74.0561 41.2302 74.0561 42.3485C74.0561 43.4451 73.6998 44.3191 72.9872 44.9705C72.2855 45.6219 71.2815 45.9477 69.9751 45.9477H68.0966ZM69.7322 44.1074C71.0709 44.1074 71.7403 43.5211 71.7403 42.3485C71.7403 41.7731 71.5838 41.3334 71.2707 41.0294C70.9576 40.7254 70.4448 40.5734 69.7322 40.5734H68.0966V44.1074H69.7322ZM80.8833 41.0619C81.9197 41.0619 82.7456 41.4039 83.361 42.0879C83.9763 42.7719 84.284 43.7328 84.284 44.9705V50.2145H82.0169V45.2311C82.0169 44.5145 81.8333 43.9608 81.4663 43.5699C81.0992 43.1682 80.5972 42.9674 79.9602 42.9674C79.3124 42.9674 78.7942 43.1791 78.4056 43.6025C78.0169 44.0259 77.8226 44.6339 77.8226 45.4265V50.2145H75.5392V38.1631H77.8226V42.9999C78.0601 42.3919 78.4487 41.9197 78.9885 41.5831C79.5391 41.2357 80.1707 41.0619 80.8833 41.0619ZM89.8073 41.0782C90.5631 41.0782 91.2108 41.2574 91.7506 41.6157C92.2904 41.9739 92.6737 42.4571 92.9004 43.0651V41.1922H95.1676V50.2145H92.9004V48.3254C92.6737 48.9334 92.2904 49.4219 91.7506 49.7911C91.2108 50.1494 90.5631 50.3285 89.8073 50.3285C89.0516 50.3285 88.3714 50.1439 87.7669 49.7748C87.1623 49.4057 86.6873 48.8737 86.3418 48.1788C86.0071 47.4731 85.8398 46.6479 85.8398 45.7034C85.8398 44.7588 86.0071 43.9391 86.3418 43.2442C86.6873 42.5385 87.1623 42.0011 87.7669 41.6319C88.3714 41.2628 89.0516 41.0782 89.8073 41.0782ZM90.5199 43.0814C89.8073 43.0814 89.2351 43.3148 88.8033 43.7817C88.3715 44.2485 88.1555 44.8891 88.1555 45.7034C88.1555 46.5177 88.3715 47.1582 88.8033 47.6251C89.2351 48.0811 89.8073 48.3091 90.5199 48.3091C91.2108 48.3091 91.7776 48.0757 92.2203 47.6088C92.6737 47.1311 92.9004 46.4959 92.9004 45.7034C92.9004 44.8999 92.6737 44.2648 92.2203 43.7979C91.7776 43.3202 91.2108 43.0814 90.5199 43.0814ZM99.5203 42.9185C99.855 42.3431 100.298 41.8925 100.848 41.5668C101.399 41.2302 102.014 41.0619 102.694 41.0619V43.5211H102.03C100.357 43.5211 99.5203 44.3028 99.5203 45.8662V50.2145H97.2369V41.1922H99.5203V42.9185ZM116.282 38.8471V50.2145H114.015V42.2834L111.116 50.2145H109.14L106.241 42.3159V50.2145H103.958V38.8471H106.727L110.16 47.3971L113.529 38.8471H116.282ZM126.787 45.3614C126.787 45.5894 126.76 45.8499 126.706 46.1431H120.131C120.163 46.9465 120.379 47.5382 120.779 47.9182C121.178 48.2982 121.675 48.4882 122.268 48.4882C122.797 48.4882 123.235 48.3579 123.58 48.0974C123.936 47.8368 124.163 47.4839 124.26 47.0388H126.673C126.554 47.6685 126.301 48.2331 125.912 48.7325C125.523 49.2319 125.021 49.6228 124.406 49.9051C123.801 50.1874 123.127 50.3285 122.382 50.3285C121.507 50.3285 120.73 50.1439 120.05 49.7748C119.37 49.3948 118.841 48.8574 118.463 48.1625C118.085 47.4677 117.896 46.6479 117.896 45.7034C117.896 44.7588 118.085 43.9391 118.463 43.2442C118.841 42.5385 119.37 42.0011 120.05 41.6319C120.73 41.2628 121.507 41.0782 122.382 41.0782C123.267 41.0782 124.039 41.2628 124.698 41.6319C125.367 42.0011 125.88 42.5114 126.236 43.1628C126.603 43.8034 126.787 44.5362 126.787 45.3614ZM124.487 45.1334C124.519 44.3951 124.325 43.8359 123.904 43.4559C123.494 43.0759 122.986 42.8859 122.382 42.8859C121.766 42.8859 121.248 43.0759 120.827 43.4559C120.406 43.8359 120.174 44.3951 120.131 45.1334H124.487ZM131.922 41.0782C132.677 41.0782 133.32 41.2574 133.849 41.6157C134.389 41.9739 134.777 42.4571 135.015 43.0651V38.1631H137.282V50.2145H135.015V48.3254C134.777 48.9334 134.389 49.4219 133.849 49.7911C133.32 50.1494 132.677 50.3285 131.922 50.3285C131.166 50.3285 130.486 50.1439 129.881 49.7748C129.277 49.4057 128.802 48.8737 128.456 48.1788C128.121 47.4731 127.954 46.6479 127.954 45.7034C127.954 44.7588 128.121 43.9391 128.456 43.2442C128.802 42.5385 129.277 42.0011 129.881 41.6319C130.486 41.2628 131.166 41.0782 131.922 41.0782ZM132.634 43.0814C131.922 43.0814 131.349 43.3148 130.918 43.7817C130.486 44.2485 130.27 44.8891 130.27 45.7034C130.27 46.5177 130.486 47.1582 130.918 47.6251C131.349 48.0811 131.922 48.3091 132.634 48.3091C133.325 48.3091 133.892 48.0757 134.335 47.6088C134.788 47.1311 135.015 46.4959 135.015 45.7034C135.015 44.8999 134.788 44.2648 134.335 43.7979C133.892 43.3202 133.325 43.0814 132.634 43.0814Z" fill="#000080"/>
<path d="M56.5053 50.1381C57.4924 50.1381 58.3018 49.5553 58.3704 48.8192L62.8704 14.5551L65.8117 31.0429C65.8712 31.4186 66.1081 31.7637 66.4927 31.994C66.8082 32.2008 67.2232 32.3237 67.6476 32.3237C67.657 32.3237 67.657 32.3237 67.657 32.3237C68.1705 32.3237 68.664 32.1552 69.0093 31.8637L73.6875 28.121H82.0669C82.8468 28.121 83.5369 27.7532 83.8038 27.193L87.1594 20.4522L90.6632 27.3387C90.7028 27.423 90.7614 27.5077 90.8306 27.5843C91.1858 28.0058 91.7685 28.2513 92.3998 28.2513H135.488C136.515 28.2513 137.344 27.6069 137.344 26.8093C137.344 26.0196 136.514 25.3678 135.488 25.3678H93.6533L88.8961 16.0194C88.7381 15.667 88.4126 15.3754 87.9685 15.2067C87.4946 15.0301 86.942 15.0147 86.4582 15.1604C85.9744 15.3139 85.5996 15.613 85.4122 16.0042L80.8032 25.2448H72.8982C72.4038 25.2448 71.9308 25.398 71.5751 25.6663L68.9696 27.7597L64.4299 2.30778C64.42 2.28451 64.42 2.25375 64.4102 2.23105C64.2325 1.54849 63.4629 1.05762 62.5744 1.05762C62.4559 1.05762 62.3475 1.07313 62.2289 1.08836C61.3896 1.21884 60.7977 1.74017 60.7386 2.38423L55.8628 39.4777L50.4742 20.0145C50.386 19.6466 50.0799 19.3092 49.6555 19.0942C49.2308 18.8873 48.7081 18.8181 48.2243 18.9181C47.5045 19.056 46.9711 19.501 46.8425 20.0449L42.7764 33.91L35.8283 25.2829C35.8183 25.2672 35.8084 25.2525 35.7885 25.2445C35.4433 24.8459 34.871 24.6079 34.2494 24.6079H7.72075C6.69423 24.6079 5.86548 25.2526 5.86548 26.042C5.86548 26.8396 6.69423 27.4836 7.72075 27.4836H33.2228L41.9868 38.3426C42.1249 38.5345 42.3715 38.7644 42.7764 38.9254C42.9145 38.9791 43.0625 39.0174 43.2206 39.0406C44.217 39.1938 45.1841 38.6952 45.4017 37.9361L48.6092 26.9775L54.718 49.0017C54.718 49.0095 54.728 49.0247 54.728 49.04C54.9353 49.6842 55.6659 50.1367 56.5048 50.1367L56.5053 50.1381Z" fill="#408000"/>
<path fill-rule="evenodd" clip-rule="evenodd" d="M6.02617 20.96C8.84339 20.96 11.117 23.2599 11.117 26.0792C11.117 28.8986 8.84339 31.1989 6.02617 31.1989C3.22325 31.1989 0.94873 28.8986 0.94873 26.0792C0.94873 23.2599 3.22325 20.96 6.02617 20.96Z" fill="#408000"/>
</svg>
