<svg width="103" height="42" viewBox="0 0 103 42" fill="none" xmlns="http://www.w3.org/2000/svg">
<path d="M50.4601 33.8561V37.0001H48.7681V28.5281H51.8521C52.8521 28.5281 53.6041 28.7681 54.1081 29.2481C54.6201 29.7281 54.8761 30.3801 54.8761 31.2041C54.8761 32.0121 54.6121 32.6561 54.0841 33.1361C53.5641 33.6161 52.8201 33.8561 51.8521 33.8561H50.4601ZM51.6721 32.5001C52.6641 32.5001 53.1601 32.0681 53.1601 31.2041C53.1601 30.7801 53.0441 30.4561 52.8121 30.2321C52.5801 30.0081 52.2001 29.8961 51.6721 29.8961H50.4601V32.5001H51.6721ZM59.9351 30.2561C60.7031 30.2561 61.3151 30.5081 61.7711 31.0121C62.2271 31.5161 62.4551 32.2241 62.4551 33.1361V37.0001H60.7751V33.3281C60.7751 32.8001 60.6391 32.3921 60.3671 32.1041C60.0951 31.8081 59.7231 31.6601 59.2511 31.6601C58.7711 31.6601 58.3871 31.8161 58.0991 32.1281C57.8111 32.4401 57.6671 32.8881 57.6671 33.4721V37.0001H55.9751V28.1201H57.6671V31.6841C57.8431 31.2361 58.1311 30.8881 58.5311 30.6401C58.9391 30.3841 59.4071 30.2561 59.9351 30.2561ZM66.5479 30.2681C67.1079 30.2681 67.5879 30.4001 67.9879 30.6641C68.3879 30.9281 68.6719 31.2841 68.8399 31.7321V30.3521H70.5199V37.0001H68.8399V35.6081C68.6719 36.0561 68.3879 36.4161 67.9879 36.6881C67.5879 36.9521 67.1079 37.0841 66.5479 37.0841C65.9879 37.0841 65.4839 36.9481 65.0359 36.6761C64.5879 36.4041 64.2359 36.0121 63.9799 35.5001C63.7319 34.9801 63.6079 34.3721 63.6079 33.6761C63.6079 32.9801 63.7319 32.3761 63.9799 31.8641C64.2359 31.3441 64.5879 30.9481 65.0359 30.6761C65.4839 30.4041 65.9879 30.2681 66.5479 30.2681ZM67.0759 31.7441C66.5479 31.7441 66.1239 31.9161 65.8039 32.2601C65.4839 32.6041 65.3239 33.0761 65.3239 33.6761C65.3239 34.2761 65.4839 34.7481 65.8039 35.0921C66.1239 35.4281 66.5479 35.5961 67.0759 35.5961C67.5879 35.5961 68.0079 35.4241 68.3359 35.0801C68.6719 34.7281 68.8399 34.2601 68.8399 33.6761C68.8399 33.0841 68.6719 32.6161 68.3359 32.2721C68.0079 31.9201 67.5879 31.7441 67.0759 31.7441ZM73.7453 31.6241C73.9933 31.2001 74.3213 30.8681 74.7293 30.6281C75.1373 30.3801 75.5933 30.2561 76.0973 30.2561V32.0681H75.6053C74.3653 32.0681 73.7453 32.6441 73.7453 33.7961V37.0001H72.0533V30.3521H73.7453V31.6241ZM86.1657 28.6241V37.0001H84.4857V31.1561L82.3377 37.0001H80.8737L78.7257 31.1801V37.0001H77.0337V28.6241H79.0857L81.6297 34.9241L84.1257 28.6241H86.1657ZM93.9498 33.4241C93.9498 33.5921 93.9298 33.7841 93.8898 34.0001H89.0178C89.0418 34.5921 89.2018 35.0281 89.4978 35.3081C89.7938 35.5881 90.1618 35.7281 90.6018 35.7281C90.9938 35.7281 91.3178 35.6321 91.5738 35.4401C91.8378 35.2481 92.0058 34.9881 92.0778 34.6601H93.8658C93.7778 35.1241 93.5898 35.5401 93.3018 35.9081C93.0138 36.2761 92.6418 36.5641 92.1858 36.7721C91.7378 36.9801 91.2378 37.0841 90.6858 37.0841C90.0378 37.0841 89.4618 36.9481 88.9578 36.6761C88.4538 36.3961 88.0618 36.0001 87.7818 35.4881C87.5018 34.9761 87.3618 34.3721 87.3618 33.6761C87.3618 32.9801 87.5018 32.3761 87.7818 31.8641C88.0618 31.3441 88.4538 30.9481 88.9578 30.6761C89.4618 30.4041 90.0378 30.2681 90.6858 30.2681C91.3418 30.2681 91.9138 30.4041 92.4018 30.6761C92.8978 30.9481 93.2778 31.3241 93.5418 31.8041C93.8138 32.2761 93.9498 32.8161 93.9498 33.4241ZM92.2458 33.2561C92.2698 32.7121 92.1258 32.3001 91.8138 32.0201C91.5098 31.7401 91.1338 31.6001 90.6858 31.6001C90.2298 31.6001 89.8458 31.7401 89.5338 32.0201C89.2218 32.3001 89.0498 32.7121 89.0178 33.2561H92.2458ZM97.7549 30.2681C98.3149 30.2681 98.7909 30.4001 99.1829 30.6641C99.5829 30.9281 99.8709 31.2841 100.047 31.7321V28.1201H101.727V37.0001H100.047V35.6081C99.8709 36.0561 99.5829 36.4161 99.1829 36.6881C98.7909 36.9521 98.3149 37.0841 97.7549 37.0841C97.1949 37.0841 96.6909 36.9481 96.2429 36.6761C95.7949 36.4041 95.4429 36.0121 95.1869 35.5001C94.9389 34.9801 94.8149 34.3721 94.8149 33.6761C94.8149 32.9801 94.9389 32.3761 95.1869 31.8641C95.4429 31.3441 95.7949 30.9481 96.2429 30.6761C96.6909 30.4041 97.1949 30.2681 97.7549 30.2681ZM98.2829 31.7441C97.7549 31.7441 97.3309 31.9161 97.0109 32.2601C96.6909 32.6041 96.5309 33.0761 96.5309 33.6761C96.5309 34.2761 96.6909 34.7481 97.0109 35.0921C97.3309 35.4281 97.7549 35.5961 98.2829 35.5961C98.7949 35.5961 99.2149 35.4241 99.5429 35.0801C99.8789 34.7281 100.047 34.2601 100.047 33.6761C100.047 33.0841 99.8789 32.6161 99.5429 32.2721C99.2149 31.9201 98.7949 31.7441 98.2829 31.7441Z" fill="white"/>
<path d="M41.8707 36.9438C42.6021 36.9438 43.2019 36.5144 43.2527 35.972L46.5873 10.7248L48.7668 22.8737C48.8109 23.1505 48.9864 23.4048 49.2714 23.5745C49.5052 23.7269 49.8127 23.8174 50.1272 23.8174C50.1342 23.8174 50.1342 23.8174 50.1342 23.8174C50.5147 23.8174 50.8804 23.6933 51.1362 23.4785L54.6028 20.7207H60.812C61.3899 20.7207 61.9013 20.4497 62.0991 20.0369L64.5856 15.07L67.1819 20.1443C67.2113 20.2064 67.2547 20.2688 67.306 20.3252C67.5692 20.6358 68.001 20.8167 68.4688 20.8167H100.398C101.159 20.8167 101.773 20.3419 101.773 19.7542C101.773 19.1723 101.158 18.692 100.398 18.692H69.3976L65.8725 11.8037C65.7554 11.5441 65.5142 11.3292 65.1851 11.2049C64.834 11.0748 64.4245 11.0634 64.066 11.1708C63.7075 11.2839 63.4298 11.5043 63.2909 11.7925L59.8756 18.6014H54.0179C53.6516 18.6014 53.3011 18.7143 53.0375 18.912L51.1068 20.4545L47.7429 1.70047C47.7355 1.68332 47.7355 1.66066 47.7283 1.64393C47.5966 1.14099 47.0263 0.779297 46.3679 0.779297C46.2801 0.779297 46.1998 0.790729 46.1119 0.801952C45.49 0.898094 45.0514 1.28223 45.0076 1.7568L41.3946 29.0888L37.4016 14.7475C37.3362 14.4764 37.1094 14.2278 36.7949 14.0694C36.4802 13.9169 36.0929 13.8659 35.7344 13.9396C35.201 14.0412 34.8058 14.3691 34.7105 14.7699L31.6975 24.9863L26.5489 18.6295C26.5415 18.6179 26.5341 18.6071 26.5194 18.6012C26.2636 18.3075 25.8395 18.1321 25.3789 18.1321H5.72096C4.9603 18.1321 4.34619 18.6071 4.34619 19.1888C4.34619 19.7765 4.9603 20.251 5.72096 20.251H24.6182L31.1124 28.2524C31.2147 28.3938 31.3974 28.5632 31.6975 28.6818C31.7998 28.7214 31.9095 28.7496 32.0266 28.7667C32.765 28.8796 33.4816 28.5122 33.6428 27.9529L36.0196 19.8781L40.5463 36.1065C40.5463 36.1122 40.5537 36.1234 40.5537 36.1347C40.7073 36.6094 41.2487 36.9428 41.8703 36.9428L41.8707 36.9438Z" fill="white"/>
<path fill-rule="evenodd" clip-rule="evenodd" d="M4.46554 15.4443C6.55312 15.4443 8.23792 17.139 8.23792 19.2164C8.23792 21.2938 6.55312 22.9888 4.46554 22.9888C2.38856 22.9888 0.703125 21.2938 0.703125 19.2164C0.703125 17.139 2.38856 15.4443 4.46554 15.4443Z" fill="white"/>
</svg>
